<?xml version="1.0" encoding="utf-8"?>
<!-- Generator: Adobe Illustrator 16.0.0, SVG Export Plug-In . SVG Version: 6.00 Build 0)  -->
<!DOCTYPE svg PUBLIC "-//W3C//DTD SVG 1.0//EN" "http://www.w3.org/TR/2001/REC-SVG-20010904/DTD/svg10.dtd" [
	<!ENTITY ns_flows "http://ns.adobe.com/Flows/1.0/">
	<!ENTITY ns_extend "http://ns.adobe.com/Extensibility/1.0/">
	<!ENTITY ns_ai "http://ns.adobe.com/AdobeIllustrator/10.0/">
	<!ENTITY ns_graphs "http://ns.adobe.com/Graphs/1.0/">
]>
<svg version="1.0" id="ARCHIVES" xmlns:x="&ns_extend;" xmlns:i="&ns_ai;" xmlns:graph="&ns_graphs;"
	 xmlns="http://www.w3.org/2000/svg" xmlns:xlink="http://www.w3.org/1999/xlink" xmlns:a="http://ns.adobe.com/AdobeSVGViewerExtensions/3.0/"
	 x="0px" y="0px" width="566.93px" height="566.93px" viewBox="0 0 566.93 566.93" enable-background="new 0 0 566.93 566.93"
	 xml:space="preserve">
<g id="LETTERS">
	<a xlink:href="https://spencer2spring.github.io/test2/h.html" target="_blank" >
		<g>
			<line fill="none" stroke="#0000FF" stroke-width="2.9308" x1="323.106" y1="222.402" x2="298.486" y2="236.586"/>
			<line fill="none" stroke="#0000FF" stroke-width="2.9308" x1="263.671" y1="188.054" x2="239.052" y2="202.295"/>
			<line fill="none" stroke="#0000FF" stroke-width="2.9308" x1="314.199" y1="277.266" x2="323.106" y2="222.402"/>
			<line fill="none" stroke="#0000FF" stroke-width="2.9308" x1="263.671" y1="188.054" x2="323.106" y2="222.402"/>
			<line fill="none" stroke="#0000FF" stroke-width="2.9308" x1="360.033" y1="250.831" x2="314.199" y2="277.266"/>
			<line fill="none" stroke="#0000FF" stroke-width="2.9308" x1="369.587" y1="195.555" x2="360.033" y2="250.831"/>
			<line fill="none" stroke="#0000FF" stroke-width="2.9308" x1="322.053" y1="228.85" x2="360.033" y2="250.831"/>
			<line fill="none" stroke="#0000FF" stroke-width="2.9308" x1="310.152" y1="161.207" x2="301.709" y2="210.035"/>
			<line fill="none" stroke="#0000FF" stroke-width="2.9308" x1="394.207" y1="181.311" x2="369.587" y2="195.555"/>
			<line fill="none" stroke="#0000FF" stroke-width="2.9308" x1="310.152" y1="161.207" x2="369.587" y2="195.555"/>
			<line fill="none" stroke="#0000FF" stroke-width="2.9308" x1="334.772" y1="147.022" x2="310.152" y2="161.207"/>
			<line fill="none" stroke="#0000FF" stroke-width="2.9308" x1="370.291" y1="325.389" x2="394.207" y2="181.311"/>
			<line fill="none" stroke="#0000FF" stroke-width="2.9308" x1="334.772" y1="147.022" x2="394.207" y2="181.311"/>
			<line fill="none" stroke="#0000FF" stroke-width="2.9308" x1="344.973" y1="340.043" x2="370.291" y2="325.389"/>
			<line fill="none" stroke="#0000FF" stroke-width="2.9308" x1="355.929" y1="277.678" x2="344.973" y2="340.043"/>
			<line fill="none" stroke="#0000FF" stroke-width="2.9308" x1="307.164" y1="318.179" x2="344.973" y2="340.043"/>
			<line fill="none" stroke="#0000FF" stroke-width="2.9308" x1="309.391" y1="304.464" x2="355.929" y2="277.678"/>
			<line fill="none" stroke="#0000FF" stroke-width="2.9308" x1="299.19" y1="366.48" x2="309.391" y2="304.464"/>
			<line fill="none" stroke="#0000FF" stroke-width="2.9308" x1="275.217" y1="380.313" x2="299.19" y2="366.48"/>
			<line fill="none" stroke="#0000FF" stroke-width="2.9308" x1="239.052" y1="202.295" x2="298.486" y2="236.586"/>
			<line fill="none" stroke="#0000FF" stroke-width="2.9308" x1="298.486" y1="236.586" x2="275.217" y2="380.313"/>
			<line fill="none" stroke="#0000FF" stroke-width="2.9308" x1="215.783" y1="345.965" x2="275.217" y2="380.313"/>
			<line fill="none" stroke="#0000FF" stroke-width="2.9308" x1="239.052" y1="202.295" x2="215.783" y2="345.965"/>
		</g>
	</a>
</g>
</svg>
